name rise32.9588peak41.5061fall63.4684.mot
datacolumns 19
datarows 20
range 13.09161400000000 13.12328300000000
endheader
time	ground_force1_vx	ground_force1_vy	ground_force1_vz	ground_force1_px	ground_force1_py	ground_force1_pz	ground_force2_vx	ground_force2_vy	ground_force2_vz	ground_force2_px	ground_force2_py	ground_force2_pz	ground_torque1_x	ground_torque1_y	ground_torque1_z	ground_torque2_x	ground_torque2_y	ground_torque2_z	
13.09161400000000	-40.48765500000000	821.73109999999997	45.23020000000000	0.09881800000000	0.00000000000000	0.10913900000000	-6.30651200000000	20.83762600000000	6.47499800000000	0.00000000000000	0.00000000000000	0.00000000000000	0.00000000000000	16.38761000000000	0.00000000000000	0.00000000000000	1.99088700000000	0.00000000000000	
13.09328700000000	-41.06687100000000	819.10613799999999	45.06713700000000	0.09794800000000	0.00000000000000	0.10906800000000	-7.68489800000000	26.33420400000000	7.98913400000000	0.34267100000000	0.00000000000000	-0.04821700000000	0.00000000000000	16.36100400000000	0.00000000000000	0.00000000000000	4.82812800000000	0.00000000000000	
13.09495400000000	-41.66097900000000	816.37553500000001	44.89420800000000	0.09707900000000	0.00000000000000	0.10899400000000	-9.04924900000000	32.11736000000000	9.52189900000000	0.34350900000000	0.00000000000000	-0.04900600000000	0.00000000000000	16.33716500000000	0.00000000000000	0.00000000000000	5.76587000000000	0.00000000000000	
13.09661900000000	-42.27032500000000	813.53944100000001	44.71137400000000	0.09621300000000	0.00000000000000	0.10891800000000	-10.35260300000000	38.05989000000000	11.02702900000000	0.34429100000000	0.00000000000000	-0.04976300000000	0.00000000000000	16.31621500000000	0.00000000000000	0.00000000000000	6.69044900000000	0.00000000000000	
13.09828400000000	-42.89519800000000	810.59793700000000	44.51859300000000	0.09534700000000	0.00000000000000	0.10883800000000	-11.55225200000000	44.04004600000000	12.46155300000000	0.34502100000000	0.00000000000000	-0.05049300000000	0.00000000000000	16.29826100000000	0.00000000000000	0.00000000000000	7.57601100000000	0.00000000000000	
13.09994900000000	-43.53582400000000	807.55103299999996	44.31582000000000	0.09448300000000	0.00000000000000	0.10875600000000	-12.61259700000000	49.95057700000000	13.78870600000000	0.34570500000000	0.00000000000000	-0.05119900000000	0.00000000000000	16.28339900000000	0.00000000000000	0.00000000000000	8.40035400000000	0.00000000000000	
13.10161800000000	-44.19236300000000	804.39866500000005	44.10301100000000	0.09362000000000	0.00000000000000	0.10867100000000	-13.50710500000000	55.70551700000000	14.97999500000000	0.34634400000000	0.00000000000000	-0.05188400000000	0.00000000000000	16.27171000000000	0.00000000000000	0.00000000000000	9.14619200000000	0.00000000000000	
13.10328400000000	-44.86490700000000	801.14068899999995	43.88011700000000	0.09275900000000	0.00000000000000	0.10858300000000	-14.21925000000000	61.24427300000000	16.01630300000000	0.34694400000000	0.00000000000000	-0.05254900000000	0.00000000000000	16.26326000000000	0.00000000000000	0.00000000000000	9.80183300000000	0.00000000000000	
13.10495000000000	-45.55347600000000	797.77688300000000	43.64708700000000	0.09189800000000	0.00000000000000	0.10849200000000	-14.74250300000000	66.53299600000000	16.88806100000000	0.34750600000000	0.00000000000000	-0.05319800000000	0.00000000000000	16.25809900000000	0.00000000000000	0.00000000000000	10.36129900000000	0.00000000000000	
13.10661600000000	-46.25801200000000	794.30694500000004	43.40386800000000	0.09103800000000	0.00000000000000	0.10839800000000	-15.07949500000000	71.56352600000000	17.59460600000000	0.34803400000000	0.00000000000000	-0.05383100000000	0.00000000000000	16.25626200000000	0.00000000000000	0.00000000000000	10.82395600000000	0.00000000000000	
13.10828200000000	-46.97837800000000	790.73048900000003	43.15040500000000	0.09017800000000	0.00000000000000	0.10830200000000	-15.24057900000000	76.35039999999999	18.14291700000000	0.34853100000000	0.00000000000000	-0.05444900000000	0.00000000000000	16.25776700000000	0.00000000000000	0.00000000000000	11.19376600000000	0.00000000000000	
13.10994700000000	-47.71435300000000	787.04705100000001	42.88663800000000	0.08932000000000	0.00000000000000	0.10820300000000	-15.24199000000000	80.92650600000000	18.54593900000000	0.34899900000000	0.00000000000000	-0.05505500000000	0.00000000000000	16.26261400000000	0.00000000000000	0.00000000000000	11.47829400000000	0.00000000000000	
13.11161500000000	-48.46563200000000	783.25608699999998	42.61250900000000	0.08846200000000	0.00000000000000	0.10810200000000	-15.10384400000000	85.33797500000000	18.82071000000000	0.34944000000000	0.00000000000000	-0.05564900000000	0.00000000000000	16.27078500000000	0.00000000000000	0.00000000000000	11.68758100000000	0.00000000000000	
13.11328000000000	-49.23182100000000	779.35697500000003	42.32795400000000	0.08760400000000	0.00000000000000	0.10799800000000	-14.84816200000000	89.63886800000000	18.98647300000000	0.34985500000000	0.00000000000000	-0.05623300000000	0.00000000000000	16.28224600000000	0.00000000000000	0.00000000000000	11.83302100000000	0.00000000000000	
13.11495100000000	-50.01243400000000	775.34901700000000	42.03291100000000	0.08674800000000	0.00000000000000	0.10789100000000	-14.49706900000000	93.88612900000000	19.06293600000000	0.35024800000000	0.00000000000000	-0.05680500000000	0.00000000000000	16.29694000000000	0.00000000000000	0.00000000000000	11.92631800000000	0.00000000000000	
13.11661500000000	-50.80689400000000	771.23144600000001	41.72731400000000	0.08589100000000	0.00000000000000	0.10778200000000	-14.07129800000000	98.13515000000000	19.06878800000000	0.35061800000000	0.00000000000000	-0.05736800000000	0.00000000000000	16.31479600000000	0.00000000000000	0.00000000000000	11.97859000000000	0.00000000000000	
13.11828100000000	-51.61452600000000	767.00342999999998	41.41110000000000	0.08503500000000	0.00000000000000	0.10767100000000	-13.58904100000000	102.43620100000000	19.02055200000000	0.35096900000000	0.00000000000000	-0.05792200000000	0.00000000000000	16.33572000000000	0.00000000000000	0.00000000000000	11.99968200000000	0.00000000000000	
13.11995000000000	-52.43456100000000	762.66407100000004	41.08420500000000	0.08418000000000	0.00000000000000	0.10755700000000	-13.06519900000000	106.83184700000000	18.93179200000000	0.35130100000000	0.00000000000000	-0.05846700000000	0.00000000000000	16.35959900000000	0.00000000000000	0.00000000000000	11.99769200000000	0.00000000000000	
13.12161300000000	-53.26613100000000	758.21241999999995	40.74656600000000	0.08332500000000	0.00000000000000	0.10744200000000	-12.51099900000000	111.35537100000001	18.81268800000000	0.35161500000000	0.00000000000000	-0.05900400000000	0.00000000000000	16.38630200000000	0.00000000000000	0.00000000000000	11.97870400000000	0.00000000000000	
13.12328300000000	-54.10826900000000	753.64747699999998	40.39812100000000	0.08247100000000	0.00000000000000	0.10732400000000	-11.93395300000000	116.03014200000000	18.66993500000000	0.35191300000000	0.00000000000000	-0.05953200000000	0.00000000000000	16.41567500000000	0.00000000000000	0.00000000000000	11.94673300000000	0.00000000000000	
